<svg width="48" height="48" viewBox="0 0 48 48" fill="none" xmlns="http://www.w3.org/2000/svg">
<path d="M18 44H30C40 44 44 40 44 30V18C44 8 40 4 30 4H18C8 4 4 8 4 18V30C4 40 8 44 18 44Z" stroke="#FDFDFF" stroke-width="3" stroke-linecap="round" stroke-linejoin="round"/>
<path d="M31 19.5C32.6569 19.5 34 18.1569 34 16.5C34 14.8431 32.6569 13.5 31 13.5C29.3431 13.5 28 14.8431 28 16.5C28 18.1569 29.3431 19.5 31 19.5Z" stroke="#FDFDFF" stroke-width="3" stroke-miterlimit="10" stroke-linecap="round" stroke-linejoin="round"/>
<path d="M17 19.5C18.6569 19.5 20 18.1569 20 16.5C20 14.8431 18.6569 13.5 17 13.5C15.3431 13.5 14 14.8431 14 16.5C14 18.1569 15.3431 19.5 17 19.5Z" stroke="#FDFDFF" stroke-width="3" stroke-miterlimit="10" stroke-linecap="round" stroke-linejoin="round"/>
<path d="M16.8 26.6H31.2C32.2 26.6 33 27.4 33 28.4C33 33.38 28.98 37.4 24 37.4C19.02 37.4 15 33.38 15 28.4C15 27.4 15.8 26.6 16.8 26.6Z" stroke="#FDFDFF" stroke-width="3" stroke-miterlimit="10" stroke-linecap="round" stroke-linejoin="round"/>
</svg>
