<svg width="49" height="48" viewBox="0 0 49 48" fill="none" xmlns="http://www.w3.org/2000/svg">
<path d="M5.08002 15.56V35.02C5.08002 38.82 7.78002 40.38 11.06 38.5L15.76 35.82C16.78 35.24 18.48 35.18 19.54 35.72L30.04 40.98C31.1 41.5 32.8 41.46 33.82 40.88L42.48 35.92C43.58 35.28 44.5 33.72 44.5 32.44V12.98C44.5 9.18001 41.8 7.62001 38.52 9.50001L33.82 12.18C32.8 12.76 31.1 12.82 30.04 12.28L19.54 7.04001C18.48 6.52001 16.78 6.56001 15.76 7.14001L7.10002 12.1C5.98002 12.74 5.08002 14.3 5.08002 15.56Z" stroke="#FDFDFF" stroke-width="3" stroke-linecap="round" stroke-linejoin="round"/>
<path d="M17.62 8V34" stroke="#FDFDFF" stroke-width="3" stroke-linecap="round" stroke-linejoin="round"/>
<path d="M31.96 13.24V40" stroke="#FDFDFF" stroke-width="3" stroke-linecap="round" stroke-linejoin="round"/>
</svg>
