<svg width="42" height="42" viewBox="0 0 60 60" fill="none" xmlns="http://www.w3.org/2000/svg">
<rect width="60" height="60" rx="5" fill="#F5D2D9"/>
<path d="M28.265 41.53H29.35L28.475 50H9.505V48.95C12.235 48.74 12.9 48.005 12.9 45.065V30.435C12.9 27.425 12.165 26.76 9.505 26.55V25.5H20.285V26.55C17.45 26.83 16.785 27.355 16.785 30.33V46.535C16.785 47.865 17.275 48.67 18.955 48.67H21.125C25.08 48.67 26.585 46.885 28.265 41.53ZM35.1469 50.28C33.6419 50.28 32.4169 49.055 32.4169 47.55C32.4169 46.08 33.6419 44.855 35.1469 44.855C36.6169 44.855 37.8419 46.08 37.8419 47.55C37.8419 49.055 36.6169 50.28 35.1469 50.28Z" fill="#0A3F45"/>
</svg>
