<svg width="49" height="48" viewBox="0 0 49 48" fill="none" xmlns="http://www.w3.org/2000/svg">
<path d="M25.82 5.03627L25.76 5.17627L19.96 18.6363H14.26C12.9 18.6363 11.6 18.9163 10.42 19.4163L13.92 11.0563L14 10.8563L14.14 10.5363C14.18 10.4163 14.22 10.2963 14.28 10.1963C16.9 4.13627 19.86 2.75627 25.82 5.03627Z" stroke="#FDFDFF" stroke-width="3" stroke-linecap="round" stroke-linejoin="round"/>
<path d="M36.6 19.0363C35.7 18.7563 34.74 18.6363 33.78 18.6363H19.96L25.76 5.17625L25.82 5.03625C26.12 5.13625 26.4 5.27626 26.7 5.39625L31.12 7.25626C33.58 8.27625 35.3 9.33625 36.34 10.6163C36.54 10.8563 36.7 11.0763 36.84 11.3363C37.02 11.6163 37.16 11.8963 37.24 12.1963C37.32 12.3763 37.38 12.5563 37.42 12.7163C37.96 14.3963 37.64 16.4563 36.6 19.0363Z" stroke="#FDFDFF" stroke-width="3" stroke-linecap="round" stroke-linejoin="round"/>
<path d="M43.5434 28.3967V32.2967C43.5434 32.6967 43.5234 33.0967 43.5034 33.4967C43.1234 40.4767 39.2234 43.9967 31.8234 43.9967H16.2234C15.7434 43.9967 15.2634 43.9567 14.8034 43.8967C8.44344 43.4767 5.04344 40.0767 4.62344 33.7167C4.56344 33.2567 4.52344 32.7767 4.52344 32.2967V28.3967C4.52344 24.3767 6.96344 20.9167 10.4434 19.4167C11.6434 18.9167 12.9234 18.6367 14.2834 18.6367H33.8034C34.7834 18.6367 35.7434 18.7767 36.6234 19.0367C40.6034 20.2567 43.5434 23.9767 43.5434 28.3967Z" stroke="#FDFDFF" stroke-width="3" stroke-linecap="round" stroke-linejoin="round"/>
<path d="M13.92 11.0563L10.42 19.4163C6.94 20.9163 4.5 24.3763 4.5 28.3963V22.5363C4.5 16.8563 8.54 12.1163 13.92 11.0563Z" stroke="#FDFDFF" stroke-width="3" stroke-linecap="round" stroke-linejoin="round"/>
<path d="M43.5372 22.5353V28.3953C43.5372 23.9953 40.6172 20.2553 36.6172 19.0553C37.6572 16.4553 37.9572 14.4153 37.4572 12.7153C37.4172 12.5353 37.3572 12.3553 37.2772 12.1953C40.9972 14.1153 43.5372 18.0553 43.5372 22.5353Z" stroke="#FDFDFF" stroke-width="3" stroke-linecap="round" stroke-linejoin="round"/>
</svg>
